<svg height="511pt" viewBox="0 -6 511.99961 511" width="511pt" xmlns="http://www.w3.org/2000/svg">
  <path
    d="m249.65625 223.984375c-16.113281 0-32.164062-3.53125-47.195312-10.550781-55.816407-26.0625-80.023438-92.671875-53.960938-148.488282 26.0625-55.816406 92.675781-80.023437 148.488281-53.960937 27.039063 12.625 47.542969 35.023437 57.734375 63.070313 10.191406 28.046874 8.851563 58.382812-3.773437 85.417968-12.625 27.039063-35.023438 47.542969-63.070313 57.734375-12.453125 4.523438-25.359375 6.777344-38.222656 6.777344zm.214844-208.035156c-36.261719 0-71.046875 20.566406-87.371094 55.53125-22.457031 48.097656-1.597656 105.496093 46.496094 127.953125 23.296875 10.878906 49.4375 12.035156 73.605468 3.253906 24.167969-8.78125 43.46875-26.449219 54.347657-49.75 10.878906-23.296875 12.03125-49.4375 3.25-73.605469s-26.449219-43.46875-49.746094-54.347656c-13.132813-6.128906-26.964844-9.035156-40.582031-9.035156zm0 0"
    fill="#bcbcc4"/>
  <path
    d="m356.472656 266.054688 28.132813 47.007812c1.167969 1.953125 3.699219 2.585938 5.648437 1.417969l5.734375-3.429688c1.953125-1.171875 4.484375-.535156 5.652344 1.417969l18.242187 30.484375c1.167969 1.953125.535157 4.480469-1.417968 5.648437l-5.734375 3.433594c-1.953125 1.167969-2.589844 3.699219-1.421875 5.648438l5.921875 9.898437c.808593 1.347657 2.320312 2.140625 3.886719 1.984375 8.179687-.828125 16.488281 2.996094 20.988281 10.519532 4.503906 7.519531 3.949219 16.652343-.644531 23.46875-.882813 1.304687-.898438 3.011718-.089844 4.363281l7.769531 12.976562c1.167969 1.953125 3.699219 2.585938 5.648437 1.417969l5.734376-3.429688c1.953124-1.167968 4.484374-.535156 5.652343 1.417969l8.546875 14.28125c1.167969 1.953125 3.699219 2.589844 5.652344 1.421875l29.621094-17.730468c1.953125-1.167969 2.585937-3.695313 1.417968-5.648438l-105.445312-176.191406c-1.171875-1.953125-3.699219-2.585938-5.652344-1.417969l-42.425781 25.390625c-1.953125 1.164062-2.585937 3.695312-1.417969 5.648438zm0 0"
    fill="#858585"/>
  <path
    d="m400.316406 235.011719-12.179687 7.289062 100.464843 167.859375c1.167969 1.953125.53125 4.484375-1.421874 5.652344l-17.441407 10.4375 4.984375 8.332031c1.167969 1.953125 3.699219 2.585938 5.652344 1.417969l29.621094-17.726562c1.953125-1.171876 2.585937-3.699219 1.417968-5.652344l-105.445312-176.191406c-1.167969-1.953126-3.699219-2.585938-5.652344-1.417969zm0 0"
    fill="#6e6e6e"/>
  <path
    d="m412.085938 154.628906-53.429688-29.8125c-5.4375-3.03125-12.074219-2.9375-17.417969.253906l-52.535156 31.367188c-5.34375 3.1875-8.578125 8.988281-8.488281 15.210938l.898437 61.179687c.089844 6.222656 3.496094 11.921875 8.929688 14.953125l53.429687 29.8125c5.433594 3.035156 12.074219 2.9375 17.417969-.253906l52.535156-31.367188c5.339844-3.1875 8.578125-8.988281 8.488281-15.210937l-.898437-61.179688c-.09375-6.21875-3.496094-11.921875-8.929687-14.953125zm-61.546876 49.039063c-11.835937 7.066406-27.15625 3.199219-34.222656-8.636719-7.070312-11.835938-3.203125-27.160156 8.632813-34.226562 11.835937-7.066407 27.160156-3.199219 34.226562 8.636718 7.066407 11.835938 3.199219 27.15625-8.636719 34.226563zm0 0"
    fill="#858585"/>
  <path
    d="m412.085938 154.628906-53.429688-29.8125c-5.4375-3.03125-12.074219-2.9375-17.417969.253906l-20.75 12.386719c5.34375-3.1875 11.984375-3.285156 17.417969-.253906l53.429688 29.8125c5.4375 3.03125 8.839843 8.734375 8.929687 14.957031l.898437 61.179688c.089844 6.222656-3.144531 12.019531-8.488281 15.210937l20.75-12.390625c5.34375-3.1875 8.578125-8.988281 8.488281-15.210937l-.898437-61.179688c-.09375-6.21875-3.496094-11.921875-8.929687-14.953125zm0 0"
    fill="#6e6e6e"/>
  <path
    d="m225.796875 289.53125.042969 44.082031c0 1.636719.964844 3.144531 2.484375 3.773438 9.859375 4.074219 16.804687 13.777343 16.816406 25.109375.011719 11.335937-6.917969 21.054687-16.769531 25.144531-1.515625.628906-2.476563 2.140625-2.476563 3.78125l.023438 21.441406c0 1.089844.433593 2.136719 1.210937 2.910157l24.15625 24.109374c1.609375 1.609376 1.613282 4.21875.007813 5.828126l-24.113281 24.160156c-.769532.769531-1.203126 1.820312-1.203126 2.914062l.019532 22.078125c.003906 2.277344 1.851562 4.117188 4.125 4.117188l49.445312-.050781c2.273438 0 4.117188-1.847657 4.113282-4.121094l-.199219-205.335938c-.003907-2.273437-1.847657-4.117187-4.125-4.117187l-49.441407.050781c-2.277343.003906-4.121093 1.847656-4.117187 4.125zm0 0"
    fill="#858585"/>
  <path
    d="m279.355469 285.355469-13.160157.015625.191407 195.867187c.003906 2.273438-1.839844 4.121094-4.117188 4.125l-36.28125.03125.007813 9.46875c.003906 2.277344 1.847656 4.117188 4.125 4.117188l49.441406-.050781c2.277344 0 4.117188-1.847657 4.117188-4.121094l-.199219-205.335938c-.003907-2.273437-1.847657-4.117187-4.125-4.117187zm0 0"
    fill="#6e6e6e"/>
  <path
    d="m323.695312 282.191406-.089843-91.679687c-.011719-13.964844-11.34375-25.273438-25.308594-25.261719l-91.679687.089844c-13.964844.011718-25.273438 11.34375-25.257813 25.308594l.085937 91.679687c.015626 13.964844 11.347657 25.273437 25.308594 25.261719l91.679688-.089844c13.96875-.011719 25.277344-11.34375 25.261718-25.308594zm-82.820312-51.210937c-12.488281-5.832031-17.886719-20.683594-12.054688-33.175781 5.832032-12.488282 20.683594-17.886719 33.175782-12.054688 12.488281 5.832031 17.886718 20.683594 12.054687 33.175781-5.832031 12.488281-20.683593 17.886719-33.175781 12.054688zm0 0"
    fill="#858585"/>
  <path
    d="m298.296875 165.25-4.632813.007812c.699219 2.3125 1.082032 4.765626 1.082032 7.304688l.089844 91.679688c.011718 13.964843-11.296876 25.296874-25.261719 25.308593l-87.042969.085938c3.144531 10.398437 12.800781 17.964843 24.222656 17.953125l91.679688-.089844c13.964844-.011719 25.273437-11.34375 25.261718-25.308594l-.089843-91.679687c-.011719-13.964844-11.34375-25.273438-25.308594-25.261719zm0 0"
    fill="#6e6e6e"/>
  <path
    d="m93.925781 229.882812-28.308593 46.902344c-1.175782 1.945313-.550782 4.480469 1.398437 5.65625l5.722656 3.453125c1.945313 1.175781 2.570313 3.707031 1.394531 5.65625l-18.355468 30.414063c-1.175782 1.945312-3.707032 2.574218-5.65625 1.398437l-5.722656-3.453125c-1.945313-1.179687-4.480469-.550781-5.65625 1.394532l-5.957032 9.875c-.816406 1.347656-.808594 3.050781.070313 4.363281 4.570312 6.832031 5.089843 15.964843.558593 23.46875-4.53125 7.507812-12.851562 11.300781-21.027343 10.441406-1.566407-.164063-3.082031.621094-3.894531 1.96875l-7.816407 12.949219c-1.175781 1.949218-.550781 4.480468 1.398438 5.65625l5.722656 3.453125c1.945313 1.175781 2.574219 3.707031 1.398437 5.65625l-8.601562 14.25c-1.175781 1.949219-.5507812 4.480469 1.398438 5.65625l29.554687 17.839843c1.945313 1.175782 4.480469.550782 5.65625-1.398437l106.105469-175.792969c1.179687-1.945312.550781-4.480468-1.394532-5.65625l-42.332031-25.546875c-1.945312-1.179687-4.480469-.554687-5.65625 1.394531zm0 0"
    fill="#d2d2dd"/>
  <path
    d="m141.914062 254.035156-12.152343-7.332031-101.089844 167.480469c-1.175781 1.949218-3.710937 2.574218-5.660156 1.398437l-17.402344-10.503906-5.015625 8.308594c-1.175781 1.949219-.5507812 4.480469 1.398438 5.65625l29.554687 17.839843c1.949219 1.175782 4.480469.550782 5.65625-1.398437l106.109375-175.792969c1.175781-1.945312.550781-4.480468-1.398438-5.65625zm0 0"
    fill="#bcbcc4"/>
  <path
    d="m183.429688 134.867188c-37.746094-22.785157-86.8125-10.65625-109.597657 27.089843-22.78125 37.746094-10.652343 86.816407 27.09375 109.597657 37.746094 22.785156 86.8125 10.65625 109.597657-27.089844 22.78125-37.746094 10.652343-86.816406-27.09375-109.597656zm-38.507813 63.792968c-11.800781-7.121094-15.59375-22.464844-8.46875-34.265625 7.121094-11.800781 22.464844-15.59375 34.265625-8.46875 11.800781 7.121094 15.59375 22.464844 8.472656 34.265625-7.125 11.800782-22.464844 15.59375-34.269531 8.46875zm0 0"
    fill="#d2d2dd"/>
  <g fill="#bcbcc4">
    <path
      d="m207.058594 156.679688c6.328125 20.886718 4.125 44.269531-8.042969 64.425781-22.78125 37.746093-71.851563 49.875-109.597656 27.09375-9.578125-5.78125-17.5-13.265625-23.625-21.816407 5.523437 18.226563 17.542969 34.554688 35.132812 45.171876 37.746094 22.785156 86.8125 10.65625 109.597657-27.089844 17-28.167969 14.550781-62.632813-3.464844-87.785156zm0 0"/>
    <path
      d="m249.652344 223.953125c-16.222656 0-32.277344-3.554687-47.191406-10.519531-20.289063-9.46875-37.066407-24.589844-48.527344-43.71875-2.195313-3.660156-1.003906-8.40625 2.65625-10.597656 3.660156-2.191407 8.40625-1.003907 10.597656 2.65625 9.871094 16.476562 24.328125 29.5 41.808594 37.660156 17.242187 8.054687 36.253906 10.816406 54.992187 7.992187 4.21875-.636719 8.152344 2.265625 8.789063 6.484375.636718 4.21875-2.265625 8.15625-6.484375 8.792969-5.539063.832031-11.101563 1.25-16.640625 1.25zm0 0"/>
  </g>
</svg>
